<svg xmlns="http://www.w3.org/2000/svg" xmlns:xlink="http://www.w3.org/1999/xlink" viewBox="0 0 512 512"><defs><style>.cls-1{isolation:isolate;}.cls-2{fill:#5e6175;}.cls-3{fill:url(#linear-gradient);}.cls-4{fill:#a9afc4;}.cls-5{fill:#e1830e;}.cls-6{mix-blend-mode:multiply;fill:url(#linear-gradient-2);}.cls-7{fill:#f5f5f5;}</style><linearGradient id="linear-gradient" x1="252.72" y1="53.19" x2="252.72" y2="458.95" gradientUnits="userSpaceOnUse"><stop offset="0" stop-color="#cacfdd"/><stop offset="1" stop-color="#eef0f1"/></linearGradient><linearGradient id="linear-gradient-2" x1="301.91" y1="173.97" x2="400.1" y2="173.97" xlink:href="#linear-gradient"/></defs><title>Destination</title><g class="cls-1"><g id="Destination"><rect class="cls-2" x="443.56" y="55.25" width="19.01" height="6" transform="translate(91.51 337.42) rotate(-45)"/><rect class="cls-2" x="427.67" y="36" width="6" height="19.01"/><rect class="cls-2" x="456.81" y="76.49" width="19.01" height="6"/><circle class="cls-3" cx="252.72" cy="279.82" r="159.52"/><path class="cls-4" d="M207.79,251.81a16.74,16.74,0,0,1-23.67,0L179.28,247a16.93,16.93,0,0,0-23.93,23.94l15,15a16.67,16.67,0,0,1,4.91,11.83v46.64a16.67,16.67,0,0,1-4.91,11.83L137,389.58c-69.93-73.69-53.9-193,32.6-245.91l24.17,24.17a16.69,16.69,0,0,1,4.91,11.83v32.4a16.76,16.76,0,0,0,4.9,11.84l4.24,4.23A16.73,16.73,0,0,1,207.79,251.81Z"/><path class="cls-4" d="M410.67,302.29a29.62,29.62,0,0,0-16.08-5.06l-2.49,0a29.61,29.61,0,0,1-29.16-29.61,29.6,29.6,0,0,0-29.6-29.6H314.21a29.63,29.63,0,0,1-29.62-29.62V174.3a52.91,52.91,0,0,1,15.94-37.85l6.73-6.57A159.58,159.58,0,0,1,410.67,302.29Z"/><path class="cls-4" d="M327.7,420.65a159.86,159.86,0,0,1-115,13.62V418.11a29.45,29.45,0,0,1,8.61-20.8l5.16-5.16a29.45,29.45,0,0,1,20.8-8.61h6.8a29.43,29.43,0,0,1,20.8,8.61l8.45,8.46a29.44,29.44,0,0,0,20.79,8.61,29.37,29.37,0,0,1,20.79,8.62Z"/><path class="cls-2" d="M136.92,393.88l-2.12-2.23c-71.09-74.9-55.15-196.5,33.2-250.54l2-1.23,25.84,25.84a19.57,19.57,0,0,1,5.79,13.95v32.4a13.7,13.7,0,0,0,4,9.72l4.24,4.23a19.76,19.76,0,0,1,0,27.91h0a19.74,19.74,0,0,1-27.92,0l-4.84-4.84a13.93,13.93,0,0,0-19.69,19.7l15,15a19.55,19.55,0,0,1,5.79,13.95v46.64a19.59,19.59,0,0,1-5.79,14Zm32.21-246.41c-82.36,52.12-97.65,166-32.08,237.79l31.17-31.17a13.61,13.61,0,0,0,4-9.71V297.74a13.65,13.65,0,0,0-4-9.71l-15-15a19.93,19.93,0,0,1,28.18-28.18l4.84,4.84a13.74,13.74,0,0,0,19.43-19.43L201.43,226a19.65,19.65,0,0,1-5.78-14v-32.4a13.57,13.57,0,0,0-4-9.7Z"/><path class="cls-2" d="M413,307.46l-4-2.69a26.61,26.61,0,0,0-14.45-4.54l-2.49,0a32.6,32.6,0,0,1-32.11-32.61,26.63,26.63,0,0,0-26.6-26.6H314.21a32.65,32.65,0,0,1-32.62-32.62V174.3a56.18,56.18,0,0,1,16.85-40l8.08-7.9c68.32,24.85,108.72,86.79,108.72,153.4A176.47,176.47,0,0,1,413,307.46ZM308,133.35l-5.37,5.25a50.16,50.16,0,0,0-15,35.7v34.06A26.65,26.65,0,0,0,314.21,235h19.13a32.64,32.64,0,0,1,32.6,32.6,26.6,26.6,0,0,0,26.2,26.61l2.5,0a32.55,32.55,0,0,1,13.62,3.22A156.52,156.52,0,0,0,308,133.35Z"/><path class="cls-2" d="M252.72,442.33a164.07,164.07,0,0,1-43-5.74V418.11a32.23,32.23,0,0,1,9.49-22.92l5.16-5.16a32.63,32.63,0,0,1,22.92-9.49h6.8A32.2,32.2,0,0,1,277,390l8.45,8.45a26.23,26.23,0,0,0,18.67,7.74A32.39,32.39,0,0,1,327,415.71l5.68,5.68-3.57,1.9A162.82,162.82,0,0,1,252.72,442.33Zm-37-10.4a157.18,157.18,0,0,0,107-12.06,26.4,26.4,0,0,0-18.58-7.65,32.18,32.18,0,0,1-22.91-9.49l-8.45-8.46a26.27,26.27,0,0,0-18.68-7.73h-6.8a26.62,26.62,0,0,0-18.68,7.73l-5.16,5.16a26.31,26.31,0,0,0-7.73,18.68Z"/><path class="cls-4" d="M251.93,479l0-6c1.92,0,3.65,0,5.91-.07l.15,6C255.71,479,254,479,251.93,479Zm-10.15-.29c-2-.11-4.06-.26-6.07-.43l.5-6c2,.17,3.94.31,5.9.41Zm26.37-.3-.46-6c2-.15,3.95-.33,5.89-.54l.65,6C272.22,478.07,270.18,478.26,268.15,478.41Zm-42.53-1.24c-2-.27-4.05-.58-6-.91l1-5.92c1.92.32,3.88.62,5.84.89Zm58.67-.66-.94-5.92c1.93-.31,3.89-.65,5.82-1l1.13,5.89C288.31,475.84,286.28,476.19,284.29,476.51Zm-74.66-2.18c-2-.44-4-.91-5.92-1.41l1.47-5.81c1.9.48,3.83.93,5.75,1.36Zm90.59-1-1.43-5.83c1.91-.46,3.84-1,5.72-1.49l1.61,5.78C304.17,472.3,302.19,472.82,300.22,473.3Zm-106.28-3.12c-1.92-.59-3.87-1.22-5.79-1.88l1.94-5.68c1.87.64,3.76,1.26,5.61,1.83Zm121.89-1.39-1.9-5.69c1.86-.62,3.73-1.28,5.58-2l2.07,5.64C319.68,467.48,317.74,468.16,315.83,468.79Zm-137.2-4c-1.85-.74-3.74-1.53-5.6-2.34l2.4-5.5c1.81.79,3.63,1.55,5.43,2.27ZM331,463l-2.36-5.52c1.8-.77,3.62-1.58,5.4-2.4l2.52,5.44C334.75,461.39,332.88,462.22,331,463Zm-167.17-4.9c-1.78-.89-3.59-1.83-5.39-2.79L161.3,450c1.74.94,3.5,1.85,5.23,2.71ZM345.68,456l-2.81-5.3c1.74-.92,3.48-1.88,5.19-2.84l3,5.21C349.27,454.09,347.47,455.08,345.68,456Zm-196-5.72c-1.72-1-3.45-2.13-5.15-3.23l3.26-5c1.65,1.07,3.33,2.13,5,3.14Zm210.06-2.45-3.23-5.06c1.65-1.05,3.31-2.15,4.93-3.25l3.38,5C363.13,445.63,361.42,446.76,359.72,447.85Zm-223.58-6.51c-1.64-1.19-3.28-2.41-4.87-3.64l3.66-4.76c1.55,1.2,3.14,2.39,4.73,3.53ZM373,438.57l-3.63-4.78c1.57-1.19,3.13-2.42,4.65-3.65l3.78,4.67C376.27,436.08,374.65,437.34,373,438.57Zm-249.65-7.26c-1.54-1.32-3.07-2.67-4.57-4l4-4.44c1.45,1.32,2.94,2.63,4.43,3.9Zm262.18-3.08-4-4.47c1.45-1.3,2.91-2.65,4.35-4L390,424.1C388.57,425.5,387.06,426.89,385.57,428.23Zm-274.08-8c-1.42-1.43-2.84-2.9-4.23-4.38l4.38-4.1c1.34,1.43,2.72,2.86,4.1,4.25Zm285-5.32-5.59-2.18a16.92,16.92,0,0,0,1.12-5l6,.45A23.63,23.63,0,0,1,396.51,415Zm-296-6.65c-1.3-1.54-2.6-3.12-3.86-4.71l4.7-3.73c1.22,1.54,2.48,3.07,3.75,4.57Zm290.1-8.82a17.13,17.13,0,0,0-2.73-4.3l4.55-3.92a23.24,23.24,0,0,1,3.67,5.8Zm-300.07-4c-1.17-1.64-2.34-3.33-3.47-5l5-3.34c1.09,1.63,2.22,3.27,3.36,4.86Zm-8.9-13.6c-1-1.74-2.06-3.52-3-5.28l5.24-2.92c1,1.71,2,3.43,3,5.12Zm-7.76-14.29c-.9-1.81-1.78-3.67-2.61-5.51l5.46-2.49c.81,1.8,1.66,3.6,2.53,5.36ZM67.3,352.71c-.75-1.89-1.47-3.82-2.15-5.72l5.65-2c.66,1.84,1.36,3.71,2.08,5.55ZM62,337.33c-.58-1.93-1.14-3.9-1.67-5.86l5.8-1.55c.51,1.9,1.05,3.81,1.61,5.68Zm-4-15.73c-.42-2-.82-4-1.18-6l5.9-1.07c.35,1.92.74,3.87,1.15,5.79Zm-2.74-16c-.25-2-.49-4-.69-6.05l6-.59c.19,2,.41,3.93.66,5.87Zm-1.42-16.17c-.1-2-.16-4.07-.2-6.09l6-.1c0,2,.1,3.95.19,5.9Zm5.87-16-6-.19c.06-2,.16-4.07.29-6.08l6,.37C59.8,269.44,59.71,271.43,59.64,273.39Zm1.14-15.71-6-.67c.23-2,.49-4,.78-6l5.94.85C61.26,253.76,61,255.73,60.78,257.68Zm2.41-15.56L57.3,241c.39-2,.81-4,1.26-6l5.85,1.33C64,238.25,63.56,240.2,63.19,242.12Zm3.66-15.31-5.78-1.64c.55-1.94,1.14-3.9,1.75-5.83l5.72,1.81C68,223,67.38,224.92,66.85,226.81Zm4.9-15-5.62-2.1c.7-1.89,1.45-3.79,2.22-5.67l5.55,2.27C73.15,208.16,72.43,210,71.75,211.84Zm6.1-14.49-5.43-2.55c.86-1.82,1.75-3.66,2.67-5.46l5.35,2.72C79.55,193.81,78.68,195.59,77.85,197.35Zm7.26-13.93-5.2-3c1-1.75,2-3.51,3.11-5.23l5.11,3.15C87.1,180,86.09,181.72,85.11,183.42Zm8.39-13.31-5-3.4c1.15-1.66,2.33-3.33,3.53-5l4.83,3.56C95.76,166.88,94.61,168.5,93.5,170.11Zm9.44-12.58-4.65-3.8c1.28-1.56,2.6-3.13,3.92-4.65l4.53,3.93C105.46,154.49,104.18,156,102.94,157.53Zm10.44-11.78-4.32-4.16c1.39-1.45,2.84-2.91,4.29-4.32l4.19,4.29C116.13,142.93,114.73,144.34,113.38,145.75Zm11.37-10.9-4-4.49c1.51-1.34,3.07-2.67,4.63-4l3.83,4.62C127.73,132.27,126.22,133.56,124.75,134.85ZM137,124.92l-3.59-4.81c1.62-1.21,3.28-2.41,4.94-3.57l3.44,4.91C140.17,122.58,138.55,123.74,137,124.92ZM150,116l-3.18-5.09c1.72-1.07,3.47-2.14,5.21-3.15l3,5.18C153.35,113.93,151.65,115,150,116Zm13.7-7.82-2.76-5.33c1.79-.93,3.63-1.84,5.46-2.72l2.59,5.41C167.2,106.4,165.42,107.29,163.68,108.19ZM178,101.52,175.66,96c1.87-.78,3.78-1.54,5.67-2.26l2.14,5.6C181.64,100,179.79,100.76,178,101.52Zm14.78-5.47-1.84-5.71c1.91-.62,3.87-1.22,5.82-1.79l1.67,5.76C196.51,94.86,194.61,95.45,192.75,96.05Zm114.46-1.62c-1.88-.55-3.79-1.08-5.7-1.57L303,87.05c2,.51,3.93,1.06,5.87,1.63Zm-99.29-2.62L206.54,86c2-.46,4-.9,6-1.3l1.2,5.88C211.76,90.94,209.82,91.37,207.92,91.81Zm84-1.19c-1.92-.39-3.87-.77-5.81-1.1l1-5.91c2,.34,4,.73,6,1.14Zm-68.55-1.79-.9-5.93c2-.3,4-.58,6-.82l.71,6C227.28,88.27,225.31,88.54,223.38,88.83Zm53-.76c-1.94-.23-3.92-.45-5.88-.62l.55-6c2,.19,4.05.4,6.05.65Zm-37.35-1-.42-6c2-.14,4-.25,6.08-.33l.23,6C243,86.87,241,87,239,87.11Zm21.65-.31c-2-.08-3.95-.13-5.91-.15l.06-6c2,0,4.07.07,6.09.15Z"/><polygon class="cls-5" points="249.92 339.98 293.48 339.98 279.11 354.35 293.39 368.62 249.92 368.62 249.92 339.98"/><rect class="cls-2" x="246.92" y="339.98" width="6" height="65.98"/><path class="cls-6" d="M400.1,218.66c-54.32,9-102.64-35.83-97.86-90.53A160,160,0,0,1,400.1,218.66Z"/><path class="cls-2" d="M252.72,442.34c-89.61,0-162.52-72.91-162.52-162.52S163.11,117.3,252.72,117.3s162.52,72.9,162.52,162.52S342.34,442.34,252.72,442.34Zm0-319c-86.3,0-156.52,70.21-156.52,156.52s70.22,156.52,156.52,156.52,156.52-70.22,156.52-156.52S339,123.3,252.72,123.3Z"/><circle class="cls-7" cx="386.3" cy="135.42" r="67.59"/><path class="cls-2" d="M386.3,206a70.59,70.59,0,1,1,70.59-70.59A70.67,70.67,0,0,1,386.3,206Zm0-135.18a64.59,64.59,0,1,0,64.59,64.59A64.66,64.66,0,0,0,386.3,70.83Z"/><path class="cls-5" d="M386.3,92.13c-23.63,0-37.36,26.21-24.86,45.56-.1,0-.44-.74,24.86,43.12l25.18-43.64C423.61,117.47,409.32,92.13,386.3,92.13Zm0,41A12.12,12.12,0,1,1,398.41,121,12.13,12.13,0,0,1,386.3,133.16Z"/><path class="cls-2" d="M47,420.12c-12.21,0-18.36-14.72-10-23.43,8.55-8.87,23.55-2.86,23.78,9.35A13.82,13.82,0,0,1,47,420.12Zm-.15-21.66a7.75,7.75,0,0,0-5.49,2.39,7.83,7.83,0,1,0,5.49-2.39C46.79,394.47,46.79,394.45,46.86,398.46Z"/><path class="cls-2" d="M97.38,461.47a10.52,10.52,0,0,1-.19-21h0a10.52,10.52,0,1,1,.19,21Zm-.09-15a4.52,4.52,0,1,0,3.34,7.66,4.53,4.53,0,0,0-3.34-7.66Z"/><path class="cls-4" d="M362.83,375.09c-1.34-1.34-2.76-2.63-4.23-3.85l3.83-4.62c1.61,1.34,3.17,2.76,4.64,4.23Zm-12-9.33c-1.63-1-3.33-1.87-5.05-2.69l2.58-5.42c1.89.9,3.75,1.89,5.54,3Zm-13.94-6.12c-1.82-.54-3.69-1-5.55-1.39l1.19-5.88c2,.42,4.09.93,6.08,1.53ZM300,357.24l-.06-6,6-.06.06,6Zm21.84-.14c-2-.09-2.95-.05-5.84,0l-.06-6c2.41,0,3.86-.07,6.16,0Z"/></g></g></svg>