<svg xmlns="http://www.w3.org/2000/svg" xmlns:xlink="http://www.w3.org/1999/xlink" viewBox="0 0 512 512"><defs><style>.cls-1{isolation:isolate;}.cls-2{fill:#e1830e;}.cls-3{fill:#f5f5f5;}.cls-4{fill:#dee1ec;}.cls-5{fill:#5e6175;}.cls-6{fill:#a9afc4;}.cls-7{fill:url(#linear-gradient);}.cls-8{mix-blend-mode:multiply;fill:url(#linear-gradient-2);}</style><linearGradient id="linear-gradient" x1="363.47" y1="323.81" x2="239.17" y2="323.81" gradientUnits="userSpaceOnUse"><stop offset="0" stop-color="#a9afc4"/><stop offset="1" stop-color="#d4d8e5"/></linearGradient><linearGradient id="linear-gradient-2" x1="204.47" y1="281.3" x2="294.2" y2="281.3" gradientUnits="userSpaceOnUse"><stop offset="0" stop-color="#cacfdd"/><stop offset="1" stop-color="#eef0f1"/></linearGradient></defs><title>Map</title><g class="cls-1"><g id="Map"><path class="cls-2" d="M381,41.9c-17.95,0-28.38,19.91-18.89,34.61-.1,0-.13-.21,18.89,32.76,21.59-37.41,20.58-35.2,21.58-38.7A22.47,22.47,0,0,0,381,41.9Zm0,31.17a9.21,9.21,0,1,1,9.2-9.21A9.22,9.22,0,0,1,381,73.07Z"/><rect class="cls-3" x="201.73" y="136.44" width="215.21" height="289.71"/><rect class="cls-4" x="201.73" y="164.58" width="187.07" height="233.43"/><path class="cls-5" d="M419.94,429.15H198.73V133.44H419.94Zm-215.21-6H413.94V139.44H204.73Z"/><rect class="cls-3" x="83.46" y="89.59" width="193.4" height="289.71"/><rect class="cls-4" x="77.51" y="151.82" width="233.43" height="165.26" transform="translate(428.67 40.22) rotate(90)"/><polygon class="cls-3" points="201.73 426.15 204.47 426.15 276.86 381.67 276.86 379.3 201.73 379.3 201.73 426.15"/><path class="cls-5" d="M205.32,429.15h-6.59V376.3h81.13v7Zm-.59-46.85v40.17l65.36-40.17Z"/><path class="cls-5" d="M155.2,311.09l22.85-22.85a8.74,8.74,0,0,1,12.38,0l22.67,22.83Z"/><polygon class="cls-2" points="247.81 193.93 242.38 183.56 245.63 183.56 235.62 164.45 225.54 183.56 228.84 183.56 223.36 193.93 247.81 193.93"/><polygon class="cls-2" points="220.25 193.93 212.23 178.62 217.04 178.62 202.25 150.4 187.37 178.62 192.23 178.62 184.15 193.93 220.25 193.93"/><path class="cls-5" d="M193,311.09l14-14a8.73,8.73,0,0,1,12.37,0l13.91,14Z"/><path class="cls-5" d="M295.27,213.83l20.47-20.47a7.83,7.83,0,0,1,11.08,0l20.31,20.45Z"/><path class="cls-5" d="M329.08,213.83l12.56-12.56a7.84,7.84,0,0,1,11.09,0l12.46,12.54Z"/><path class="cls-6" d="M430.79,242.57v-6a43.21,43.21,0,0,0,5.58-.36l.79,5.94A48.33,48.33,0,0,1,430.79,242.57Zm16.7-3L445.41,234a41.06,41.06,0,0,0,5.11-2.29l2.81,5.3A47.75,47.75,0,0,1,447.49,239.6Zm14.64-8.6-3.91-4.56a42.31,42.31,0,0,0,4-3.91l4.47,4A50.75,50.75,0,0,1,462.13,231Zm10.75-13.12L467.65,215a44,44,0,0,0,2.4-5l5.58,2.21A49.16,49.16,0,0,1,472.88,217.88Zm5.54-16-5.93-.92a41.62,41.62,0,0,0,.5-5.58l6,.14A48.17,48.17,0,0,1,478.42,201.84Zm.58-16.43h-6v-6h6Zm0-16h-6v-6h6Zm0-16h-6v-6h6Zm0-16h-6v-6h6ZM472.38,122a42.64,42.64,0,0,0-1.31-5.44l5.72-1.79a48.46,48.46,0,0,1,1.51,6.21Zm-5.07-14a42.82,42.82,0,0,0-3.13-4.64l4.74-3.68a49.76,49.76,0,0,1,3.57,5.31ZM457.7,96.66a42.4,42.4,0,0,0-4.54-3.27l3.18-5.09A48.62,48.62,0,0,1,461.52,92Zm-12.93-7.31a41.79,41.79,0,0,0-5.39-1.5L440.59,82a46.41,46.41,0,0,1,6.16,1.71ZM430.05,87h-6V81h6Zm-16,0h-6V81h6Z"/><path class="cls-6" d="M400.63,242.57h-6v-6h6Zm-16,0h-6v-6h6Zm-16,0h-6v-6h6Z"/><path class="cls-7" d="M276.85,299.32h26.33a11.23,11.23,0,0,1,11.23,11.23V314a11.22,11.22,0,0,0,3.29,7.94l7.24,7.24A11.25,11.25,0,0,1,317,348.3H276.85Z"/><path class="cls-5" d="M279.86,382.3H80.46V86.59h199.4Zm-193.4-6h187.4V92.59H86.46Z"/><path class="cls-6" d="M111.6,164.69h4.15A46.21,46.21,0,0,1,162,210.9v2.88a24.58,24.58,0,0,0,24.59,24.58h90.3V263H182.39a46.21,46.21,0,0,1-46.21-46.22v-1.94a24.59,24.59,0,0,0-24.58-24.59"/><path class="cls-5" d="M279.86,266H182.39a49.27,49.27,0,0,1-49.21-49.22v-1.94a21.61,21.61,0,0,0-21.58-21.59v-6a27.62,27.62,0,0,1,27.58,27.59v1.94A43.27,43.27,0,0,0,182.39,260h91.47V241.36H186.55A27.62,27.62,0,0,1,159,213.78V210.9a43.26,43.26,0,0,0-43.21-43.21H111.6v-6h4.15A49.27,49.27,0,0,1,165,210.9v2.88a21.61,21.61,0,0,0,21.59,21.58h93.31Z"/><path class="cls-6" d="M276.85,252.12h58.09a16.78,16.78,0,0,1,16.78,16.78v12.2a4.58,4.58,0,0,0,4.58,4.58h32.5v23.39h-44A16.78,16.78,0,0,1,328,292.29V279.8a4.58,4.58,0,0,0-4.58-4.58H276.85Z"/><path class="cls-5" d="M388.8,312.07h-44A19.8,19.8,0,0,1,325,292.29V279.8a1.58,1.58,0,0,0-1.58-1.58h-49.6v-29.1h61.08a19.8,19.8,0,0,1,19.78,19.78v12.2a1.58,1.58,0,0,0,1.58,1.58h32.5v6H356.3a7.59,7.59,0,0,1-7.58-7.58V268.9a13.79,13.79,0,0,0-13.78-13.78H279.86v17.1h43.6A7.59,7.59,0,0,1,331,279.8v12.49a13.79,13.79,0,0,0,13.78,13.78h44Z"/><polygon class="cls-8" points="276.86 136.44 294.2 136.44 294.2 388.92 236.35 426.15 204.47 426.15 276.86 379.3 276.86 136.44"/><rect class="cls-5" x="431.15" y="438.75" width="6" height="18.58" transform="translate(-189.66 438.22) rotate(-45)"/><rect class="cls-5" x="437.32" y="423.15" width="18.58" height="6"/><rect class="cls-5" x="410.39" y="451.71" width="6" height="18.58"/><path class="cls-5" d="M83.43,60.34C75.69,52,81.88,38.27,93.38,38.72a12.88,12.88,0,1,1-9.95,21.62Zm9.45-15.63a6.89,6.89,0,1,0,6.89,7.14h0A6.88,6.88,0,0,0,92.88,44.71Z"/><path class="cls-5" d="M35.63,100.89a9.87,9.87,0,1,1,17.1-6.33A9.88,9.88,0,0,1,35.63,100.89Zm7.24-10.57a3.87,3.87,0,1,0,2.84,1.24A3.87,3.87,0,0,0,42.87,90.32Z"/><path class="cls-2" d="M115.28,426.15a27.45,27.45,0,0,1,27.45,27.45,27.45,27.45,0,0,1,27.45-27.45,27.45,27.45,0,0,1-27.45-27.45A27.45,27.45,0,0,1,115.28,426.15Z"/><path class="cls-2" d="M452.62,256a16.2,16.2,0,0,1,16.2,16.2A16.2,16.2,0,0,1,485,256a16.2,16.2,0,0,1-16.2-16.2A16.2,16.2,0,0,1,452.62,256Z"/></g></g></svg>